<svg id="Layer_1" data-name="Layer 1" xmlns="http://www.w3.org/2000/svg" viewBox="0 0 95.38 95.38"><defs><style>.cls-1{fill:#fff;}</style></defs><title>Artboard 16</title><path class="cls-1" d="M57.88,51.54l1.17-9.1H50V36.63c0-2.64.73-4.43,4.51-4.43h4.82V24.06a64.25,64.25,0,0,0-7-.36c-6.95,0-11.7,4.24-11.7,12v6.71H32.79v9.1h7.86V74.9H50V51.54Z"/><path d="M59.49,49.93l1.17-9.1h-9V35c0-2.64.73-4.43,4.51-4.43H61V22.45a64.25,64.25,0,0,0-7-.36c-6.95,0-11.7,4.24-11.7,12v6.71H34.4v9.1h7.86V73.29h9.4V49.93Z"/></svg>