<svg id="Layer_1" data-name="Layer 1" xmlns="http://www.w3.org/2000/svg" viewBox="0 0 95.38 95.38"><defs><style>.cls-1{fill:#fff;}</style></defs><title>Artboard 18</title><path class="cls-1" d="M28.55,25.72H63.61a6.07,6.07,0,0,1,6.05,6.05V66.83a6.07,6.07,0,0,1-6.05,6.05H28.55a6.07,6.07,0,0,1-6.06-6.05V31.77A6.07,6.07,0,0,1,28.55,25.72ZM56.86,31a2.13,2.13,0,0,0-2.12,2.13v5.08a2.13,2.13,0,0,0,2.12,2.12h5.33a2.13,2.13,0,0,0,2.12-2.12V33.08A2.13,2.13,0,0,0,62.19,31Zm7.47,14.71H60.18a13.79,13.79,0,0,1,.61,4,14.67,14.67,0,0,1-29.32,0,13.85,13.85,0,0,1,.61-4H27.74V65.59a1.88,1.88,0,0,0,1.87,1.87H62.46a1.87,1.87,0,0,0,1.87-1.87ZM46.12,40A9.18,9.18,0,1,0,55.6,49.2,9.33,9.33,0,0,0,46.12,40Z"/><path d="M30.16,24.11H65.22a6.07,6.07,0,0,1,6.05,6.05V65.22a6.07,6.07,0,0,1-6.05,6.05H30.16a6.07,6.07,0,0,1-6.06-6.05V30.16A6.07,6.07,0,0,1,30.16,24.11Zm28.3,5.24a2.13,2.13,0,0,0-2.12,2.13v5.08a2.13,2.13,0,0,0,2.12,2.12H63.8a2.13,2.13,0,0,0,2.12-2.12V31.47a2.13,2.13,0,0,0-2.12-2.13Zm7.47,14.71H61.79a13.79,13.79,0,0,1,.61,4,14.67,14.67,0,0,1-29.32,0,13.85,13.85,0,0,1,.61-4H29.35V64a1.88,1.88,0,0,0,1.87,1.87H64.07A1.87,1.87,0,0,0,65.94,64ZM47.73,38.41a9.18,9.18,0,1,0,9.47,9.18A9.33,9.33,0,0,0,47.73,38.41Z"/></svg>