<svg id="Layer_1" data-name="Layer 1" xmlns="http://www.w3.org/2000/svg" viewBox="0 0 95.38 95.38"><defs><style>.cls-1{fill:#fff;}</style></defs><title>Artboard 17</title><path class="cls-1" d="M69.66,34.67a19.32,19.32,0,0,1-5.56,1.52,9.7,9.7,0,0,0,4.25-5.35,19.34,19.34,0,0,1-6.14,2.35A9.69,9.69,0,0,0,45.72,42,27.46,27.46,0,0,1,25.78,31.9a9.69,9.69,0,0,0,3,12.92,9.64,9.64,0,0,1-4.38-1.21v.12a9.68,9.68,0,0,0,7.76,9.49,9.74,9.74,0,0,1-2.55.34,9.61,9.61,0,0,1-1.82-.18,9.69,9.69,0,0,0,9,6.72,19.41,19.41,0,0,1-12,4.14,20,20,0,0,1-2.31-.14,27.41,27.41,0,0,0,14.84,4.35c17.8,0,27.53-14.74,27.53-27.53,0-.42,0-.84,0-1.25A19.71,19.71,0,0,0,69.66,34.67Z"/><path d="M71.27,33.06a19.32,19.32,0,0,1-5.56,1.52A9.7,9.7,0,0,0,70,29.23a19.34,19.34,0,0,1-6.14,2.35A9.69,9.69,0,0,0,47.33,40.4,27.46,27.46,0,0,1,27.39,30.29a9.69,9.69,0,0,0,3,12.92A9.64,9.64,0,0,1,26,42v.12a9.68,9.68,0,0,0,7.76,9.49,9.74,9.74,0,0,1-2.55.34,9.61,9.61,0,0,1-1.82-.18,9.69,9.69,0,0,0,9,6.72,19.41,19.41,0,0,1-12,4.14,20,20,0,0,1-2.31-.14,27.41,27.41,0,0,0,14.84,4.35c17.8,0,27.53-14.74,27.53-27.53,0-.42,0-.84,0-1.25A19.71,19.71,0,0,0,71.27,33.06Z"/></svg>